<svg width="40" height="40" viewBox="0 0 40 40" fill="none" xmlns="http://www.w3.org/2000/svg">
  <path
    d="M26.25 27.5H26.1719C24.7656 27.5 23.3594 27.3438 22.0312 26.875L19.375 29.4531L18.8281 30H18.125H15V33.125V35H13.125H10V38.125V40H8.125H1.875H0V38.125V31.875V31.0938L0.546875 30.5469L13.125 17.9688C12.6562 16.6406 12.5 15.2344 12.5 13.75C12.5 6.17188 18.5938 0 26.25 0C33.8281 0 40 6.17188 40 13.75C40 21.4062 33.8281 27.5 26.25 27.5ZM29.375 7.5C28.2031 7.5 27.1875 8.125 26.6406 9.0625C26.0938 10.0781 26.0938 11.25 26.6406 12.1875C27.1875 13.2031 28.2031 13.75 29.375 13.75C30.4688 13.75 31.4844 13.2031 32.0312 12.1875C32.5781 11.25 32.5781 10.0781 32.0312 9.0625C31.4844 8.125 30.4688 7.5 29.375 7.5Z"
    fill="white" />
</svg>
  