<svg width="21" height="25" viewBox="0 0 21 25" fill="none" xmlns="http://www.w3.org/2000/svg">
    <path
        d="M14.25 7C14.25 5.6875 13.5 4.46875 12.375 3.76562C11.2031 3.10938 9.75 3.10938 8.625 3.76562C7.45312 4.46875 6.75 5.6875 6.75 7C6.75 8.35938 7.45312 9.57812 8.625 10.2812C9.75 10.9375 11.2031 10.9375 12.375 10.2812C13.5 9.57812 14.25 8.35938 14.25 7ZM4.5 7C4.5 4.89062 5.625 2.92188 7.5 1.84375C9.32812 0.765625 11.625 0.765625 13.5 1.84375C15.3281 2.92188 16.5 4.89062 16.5 7C16.5 9.15625 15.3281 11.125 13.5 12.2031C11.625 13.2812 9.32812 13.2812 7.5 12.2031C5.625 11.125 4.5 9.15625 4.5 7ZM3.04688 22.75H17.9531L16.3125 17.5H4.64062L3.04688 22.75ZM3 15.25H18L20.2969 22.75L21 25H18.6094H2.34375H0L0.65625 22.75L3 15.25Z"
        fill="white" />
</svg>
    