<svg width="41" height="40" viewBox="0 0 41 40" fill="none" xmlns="http://www.w3.org/2000/svg">
  <path
    d="M24.3281 15C26.0469 18.0469 29.25 20 33 20C33.8594 20 34.6406 19.9219 35.5 19.6875V20V22.5V37.5V40H30.5V37.5V26.5625L19.875 35H24.25H26.75V40H24.25H8H5.5V37.5V15C5.5 13.6719 4.32812 12.5 3 12.5H0.5V7.5H3C7.14062 7.5 10.5 10.8594 10.5 15V21.7188C13.1562 17.7344 17.7656 15 23 15H24.3281ZM39.4844 13.75C38.625 15.3125 37.1406 16.4844 35.5 17.1094C34.7188 17.4219 33.8594 17.5 33 17.5C30.7344 17.5 28.7812 16.5625 27.375 15C27.0625 14.6875 26.8281 14.375 26.5938 13.9844C25.8906 12.8125 25.5 11.4844 25.5 10V3.59375V0L28 2.5L30.5 5H35.5L38 2.5L40.5 0V3.59375V10C40.5 11.4062 40.1094 12.6562 39.4844 13.75ZM29.25 10C29.25 10.7031 29.7969 11.25 30.5 11.25C31.125 11.25 31.75 10.7031 31.75 10C31.75 9.375 31.125 8.75 30.5 8.75C29.7969 8.75 29.25 9.375 29.25 10ZM35.5 8.75C34.7969 8.75 34.25 9.375 34.25 10C34.25 10.7031 34.7969 11.25 35.5 11.25C36.125 11.25 36.75 10.7031 36.75 10C36.75 9.375 36.125 8.75 35.5 8.75Z"
    fill="white" />
</svg>
  