<svg width="24" height="26" viewBox="0 0 24 26" fill="none" xmlns="http://www.w3.org/2000/svg">
  <path
    d="M2.57812 10.375L4.5 12.25H6.75L9 14.5V17.5L10.5 19V22H13.5V19.75L16.5 16.75V13H10.5L9 11.5V10H12.75V8.5L11.25 7V6.25L12.75 4.75V3.29688C12.4688 3.29688 12.2344 3.25 12 3.25C7.5 3.25 3.75 6.29688 2.57812 10.375ZM21.75 13C21.75 11.3125 21.2812 9.67188 20.4844 8.26562L18.75 10V13.75H21.7031C21.7031 13.5156 21.75 13.2812 21.75 13ZM0 13C0 8.73438 2.25 4.79688 6 2.64062C9.70312 0.484375 14.25 0.484375 18 2.64062C21.7031 4.79688 24 8.73438 24 13C24 17.3125 21.7031 21.25 18 23.4062C14.25 25.5625 9.70312 25.5625 6 23.4062C2.25 21.25 0 17.3125 0 13Z"
    fill="#9B5DE5" />
</svg>
  