<svg width="24" height="22" viewBox="0 0 24 22" fill="none" xmlns="http://www.w3.org/2000/svg">
    <path
        d="M12 6.6875L10.4062 5.09375L9.23438 3.96875C8.48438 3.21875 7.45312 2.75 6.32812 2.75C4.07812 2.75 2.25 4.625 2.25 6.875C2.25 8 2.67188 9.03125 3.42188 9.78125L4.54688 10.9531L12 18.3594L19.4062 10.9531L20.5312 9.78125C21.2812 9.03125 21.75 8 21.75 6.875C21.75 4.625 19.875 2.75 17.625 2.75C16.5 2.75 15.4688 3.21875 14.7188 3.96875L13.5469 5.09375L12 6.6875ZM13.5469 19.9531L12 21.5L10.4062 19.9531L3 12.5L1.82812 11.375C0.65625 10.2031 0 8.5625 0 6.875C0 3.35938 2.8125 0.5 6.32812 0.5C8.01562 0.5 9.65625 1.20312 10.8281 2.375L12 3.5L13.125 2.375C14.2969 1.20312 15.9375 0.546875 17.625 0.546875C21.1406 0.5 24 3.35938 24 6.875C24 8.5625 23.2969 10.2031 22.125 11.375L21 12.5L13.5469 19.9531Z"
        fill="white" />
</svg>
    