<svg width="26" height="24" viewBox="0 0 26 24" fill="none" xmlns="http://www.w3.org/2000/svg">
    <path
        d="M21.4844 7.26562C19.9375 4.5 17.0781 2.53125 13.75 2.29688V3.75L12.25 5.25V6L13.75 7.5V9H10V10.5L11.5 12H17.5V15.75L14.5 18.75V20.25H11.5V18L10 16.5V13.5L7.75 11.25H5.5L3.57812 9.375C3.34375 10.2188 3.25 11.1094 3.25 12C3.25 17.3906 7.60938 21.75 13 21.75C18.1094 21.75 22.3281 17.8125 22.7031 12.75H19.75V9L21.4844 7.26562ZM13 24C8.6875 24 4.75 21.75 2.59375 18C0.4375 14.2969 0.4375 9.75 2.59375 6C4.75 2.29688 8.6875 0 13 0C17.2656 0 21.2031 2.29688 23.3594 6C25.5156 9.75 25.5156 14.2969 23.3594 18C21.2031 21.75 17.2656 24 13 24Z"
        fill="white" />
</svg>