<svg width="10" height="11" viewBox="0 0 10 11" fill="none" xmlns="http://www.w3.org/2000/svg">
<path d="M2.77344 3.04297C2.44141 3.39453 2.1875 3.78516 2.05078 4.21484L0.859375 3.80469C1.07422 3.19922 1.42578 2.63281 1.89453 2.16406C3.61328 0.464844 6.36719 0.464844 8.08594 2.16406L9.21875 1.03125L9.6875 1.5V4.625H6.5625L6.09375 4.15625L7.20703 3.04297C5.97656 1.83203 4.00391 1.83203 2.77344 3.04297ZM2.77344 7.47656C4.00391 8.6875 5.97656 8.6875 7.20703 7.47656C7.53906 7.125 7.79297 6.73438 7.94922 6.30469L9.12109 6.71484C8.90625 7.32031 8.57422 7.86719 8.08594 8.35547C6.38672 10.0547 3.61328 10.0547 1.89453 8.35547L0.78125 9.46875L0.3125 9V5.875H3.4375L3.90625 6.34375L2.77344 7.47656Z" fill="white"/>
</svg>
