<svg width="14" height="11" viewBox="0 0 14 11" fill="none" xmlns="http://www.w3.org/2000/svg">
  <path
    d="M7.74219 1.98438L9.5 5.5L12.3125 3.25C12.1953 3.10938 12.125 2.89844 12.125 2.6875C12.125 2.17188 12.5234 1.75 13.0625 1.75C13.5781 1.75 14 2.17188 14 2.6875C14 3.22656 13.5781 3.625 13.0625 3.625C13.0391 3.625 13.0391 3.625 13.0391 3.625L11.75 10.75H2.75L1.4375 3.625C0.898438 3.625 0.5 3.22656 0.5 2.6875C0.5 2.17188 0.898438 1.75 1.4375 1.75C1.95312 1.75 2.375 2.17188 2.375 2.6875C2.375 2.89844 2.30469 3.10938 2.1875 3.25L5 5.5L6.75781 1.98438C6.47656 1.82031 6.3125 1.53906 6.3125 1.1875C6.3125 0.671875 6.71094 0.25 7.25 0.25C7.76562 0.25 8.1875 0.671875 8.1875 1.1875C8.1875 1.53906 8 1.82031 7.74219 1.98438Z"
    fill="white" />
</svg>
  