<svg width="36" height="36" viewBox="0 0 36 36" fill="none" xmlns="http://www.w3.org/2000/svg">
  <path
    d="M35.5 0.5V35.5H0.5V0.5H35.5ZM6.125 4.25C5.03125 4.25 4.25 5.10938 4.25 6.125C4.25 7.21875 5.03125 8 6.125 8C7.14062 8 8 7.21875 8 6.125C8 5.10938 7.14062 4.25 6.125 4.25ZM28 6.125C28 7.21875 28.7812 8 29.875 8C30.8906 8 31.75 7.21875 31.75 6.125C31.75 5.10938 30.8906 4.25 29.875 4.25C28.7812 4.25 28 5.10938 28 6.125ZM6.125 28C5.03125 28 4.25 28.8594 4.25 29.875C4.25 30.9688 5.03125 31.75 6.125 31.75C7.14062 31.75 8 30.9688 8 29.875C8 28.8594 7.14062 28 6.125 28ZM28 29.875C28 30.9688 28.7812 31.75 29.875 31.75C30.8906 31.75 31.75 30.9688 31.75 29.875C31.75 28.8594 30.8906 28 29.875 28C28.7812 28 28 28.8594 28 29.875ZM11.125 13.625V14.1719H14.875V13.7031C14.875 13.3125 15.1094 13.0781 15.5 13.0781H19.875C20.5781 13.0781 21.125 13.5469 21.125 14.25C21.125 14.6406 20.8906 15.0312 20.5 15.2656L17.0625 17.2188L16.125 17.7656V18.8594V20.5V22.375H19.875V20.5V19.9531L22.375 18.4688C23.8594 17.6094 24.875 15.9688 24.875 14.25C24.875 11.5156 22.6094 9.25 19.875 9.25H15.5C13.0781 9.25 11.125 11.2812 11.125 13.625ZM16.125 25.5V29.25H19.875V25.5H16.125Z"
    fill="white" />
</svg>
  