<svg width="40" height="40" viewBox="0 0 40 40" fill="none" xmlns="http://www.w3.org/2000/svg">
  <path
    d="M25 7.5H15L10 0H30L25 7.5ZM15 10H25C25.2344 10.2344 25.625 10.4688 26.0156 10.7031C30.3906 13.5156 40 19.6094 40 32.5V40H32.5H7.5H0V32.5C0 19.6094 9.53125 13.5156 13.9844 10.7031C14.2969 10.4688 14.6875 10.2344 15 10ZM21.5625 17.5V15.9375H18.4375V17.5V17.9688C17.9688 18.125 17.5781 18.2031 17.1875 18.4375C16.0156 18.9062 15 19.9219 14.6875 21.3281C14.6094 22.1094 14.6875 22.8906 15 23.5938C15.3125 24.2969 15.8594 24.7656 16.3281 25.1562C17.2656 25.7812 18.4375 26.0938 19.375 26.4062H19.5312C20.625 26.7969 21.3281 27.0312 21.7969 27.3438C22.0312 27.5 22.1094 27.5781 22.1094 27.6562C22.1094 27.7344 22.1875 27.8906 22.1094 28.2031C22.1094 28.4375 21.9531 28.6719 21.4844 28.9062C21.0156 29.0625 20.2344 29.2188 19.2188 29.0625C18.75 28.9844 17.9688 28.6719 17.1875 28.4375C17.0312 28.3594 16.875 28.2812 16.7188 28.2812L15.2344 27.7344L14.2188 30.7031L15.7031 31.25C15.7812 31.25 15.9375 31.25 16.0938 31.3281C16.6406 31.5625 17.6562 31.875 18.3594 32.0312V32.5V34.0625H21.4844V32.5V32.1094C21.9531 32.0312 22.3438 31.875 22.7344 31.7188C23.9844 31.25 24.9219 30.2344 25.1562 28.75C25.3125 27.8906 25.2344 27.1094 24.9219 26.4062C24.6875 25.7031 24.1406 25.2344 23.6719 24.8438C22.6562 24.1406 21.4062 23.75 20.4688 23.4375H20.3906C19.2969 23.125 18.5938 22.8906 18.0469 22.5781C17.8906 22.4219 17.8125 22.3438 17.8125 22.2656C17.8125 22.2656 17.7344 22.1875 17.8125 21.875C17.8125 21.7188 17.9688 21.4844 18.4375 21.25C18.9062 21.0156 19.6875 20.9375 20.7031 21.0938C21.0156 21.0938 22.0312 21.3281 22.3438 21.4062L23.9062 21.7969L24.6875 18.75L23.2031 18.3594C22.8125 18.2812 22.0312 18.125 21.4844 18.0469V17.5H21.5625Z"
    fill="white" />
</svg>
  