<svg width="18" height="15" viewBox="0 0 18 15" fill="none" xmlns="http://www.w3.org/2000/svg">
  <path
    d="M3.5 0.832031L4.10156 1.46094L6.28906 3.64844L6.91797 4.25L5.6875 5.50781L5.05859 4.87891L4.375 4.19531V12.125H7.875V2.5V1.625H8.75H14H14.875V2.5V11.332L15.5586 10.6484L16.1875 10.0195L17.418 11.25L16.7891 11.8789L14.6016 14.0664L14 14.6953L13.3711 14.0664L11.1836 11.8789L10.5547 11.25L11.8125 10.0195L12.4141 10.6484L13.125 11.332V3.375H9.625V13V13.875H8.75H3.5H2.625V13V4.19531L1.91406 4.87891L1.3125 5.50781L0.0546875 4.25L0.683594 3.64844L2.87109 1.46094L3.5 0.832031Z"
    fill="white" />
</svg>
  