<svg width="256" height="256" viewBox="0 0 256 256" fill="none" xmlns="http://www.w3.org/2000/svg">
<rect width="256" height="256" fill="black"/>
<path d="M141.855 109C148.301 120.426 160.312 127.75 174.375 127.75C177.598 127.75 180.527 127.457 183.75 126.578V127.75V137.125V193.375V202.75H165V193.375V152.359L125.156 184H141.562H150.938V202.75H141.562H80.625H71.25V193.375V109C71.25 104.02 66.8555 99.625 61.875 99.625H52.5V80.875H61.875C77.4023 80.875 90 93.4727 90 109V134.195C99.9609 119.254 117.246 109 136.875 109H141.855ZM198.691 104.312C195.469 110.172 189.902 114.566 183.75 116.91C180.82 118.082 177.598 118.375 174.375 118.375C165.879 118.375 158.555 114.859 153.281 109C152.109 107.828 151.23 106.656 150.352 105.191C147.715 100.797 146.25 95.8164 146.25 90.25V66.2266V52.75L155.625 62.125L165 71.5H183.75L193.125 62.125L202.5 52.75V66.2266V90.25C202.5 95.5234 201.035 100.211 198.691 104.312ZM160.312 90.25C160.312 92.8867 162.363 94.9375 165 94.9375C167.344 94.9375 169.688 92.8867 169.688 90.25C169.688 87.9062 167.344 85.5625 165 85.5625C162.363 85.5625 160.312 87.9062 160.312 90.25ZM183.75 85.5625C181.113 85.5625 179.062 87.9062 179.062 90.25C179.062 92.8867 181.113 94.9375 183.75 94.9375C186.094 94.9375 188.438 92.8867 188.438 90.25C188.438 87.9062 186.094 85.5625 183.75 85.5625Z" fill="white"/>
</svg>
