<svg width="19" height="19" viewBox="0 0 19 19" fill="none" xmlns="http://www.w3.org/2000/svg">
<path d="M11.2227 7C11.9961 8.37109 13.4375 9.25 15.125 9.25C15.5117 9.25 15.8633 9.21484 16.25 9.10938V9.25V10.375V17.125V18.25H14V17.125V12.2031L9.21875 16H11.1875H12.3125V18.25H11.1875H3.875H2.75V17.125V7C2.75 6.40234 2.22266 5.875 1.625 5.875H0.5V3.625H1.625C3.48828 3.625 5 5.13672 5 7V10.0234C6.19531 8.23047 8.26953 7 10.625 7H11.2227ZM18.043 6.4375C17.6562 7.14062 16.9883 7.66797 16.25 7.94922C15.8984 8.08984 15.5117 8.125 15.125 8.125C14.1055 8.125 13.2266 7.70312 12.5938 7C12.4531 6.85938 12.3477 6.71875 12.2422 6.54297C11.9258 6.01562 11.75 5.41797 11.75 4.75V1.86719V0.25L12.875 1.375L14 2.5H16.25L17.375 1.375L18.5 0.25V1.86719V4.75C18.5 5.38281 18.3242 5.94531 18.043 6.4375ZM13.4375 4.75C13.4375 5.06641 13.6836 5.3125 14 5.3125C14.2812 5.3125 14.5625 5.06641 14.5625 4.75C14.5625 4.46875 14.2812 4.1875 14 4.1875C13.6836 4.1875 13.4375 4.46875 13.4375 4.75ZM16.25 4.1875C15.9336 4.1875 15.6875 4.46875 15.6875 4.75C15.6875 5.06641 15.9336 5.3125 16.25 5.3125C16.5312 5.3125 16.8125 5.06641 16.8125 4.75C16.8125 4.46875 16.5312 4.1875 16.25 4.1875Z" fill="white"/>
</svg>
