<svg width="16" height="17" viewBox="0 0 16 17" fill="none" xmlns="http://www.w3.org/2000/svg">
<path d="M16 0.375V16.125H0.25V0.375H16ZM5.03125 5.71875V5.96484H6.71875V5.75391C6.71875 5.57812 6.82422 5.47266 7 5.47266H8.96875C9.28516 5.47266 9.53125 5.68359 9.53125 6C9.53125 6.17578 9.42578 6.35156 9.25 6.45703L7.70312 7.33594L7.28125 7.58203V8.07422V8.53125V9.375H8.96875V8.56641L10.0938 7.89844C10.7617 7.51172 11.2188 6.77344 11.2188 6C11.2188 4.76953 10.1992 3.75 8.96875 3.75H7C5.91016 3.75 5.03125 4.66406 5.03125 5.71875ZM7.28125 10.5V12.1875H8.96875V10.5H7.28125Z" fill="white"/>
</svg>
