<svg width="23" height="14" viewBox="0 0 23 14" fill="none" xmlns="http://www.w3.org/2000/svg">
<path d="M6.82812 0.886719C10.3438 0.886719 13.1914 3.73438 13.1914 7.25C13.1914 10.8008 10.3438 13.6484 6.82812 13.6484C3.3125 13.6484 0.5 10.8008 0.5 7.25C0.5 3.73438 3.3125 0.886719 6.82812 0.886719ZM16.9531 1.23828C18.7109 1.23828 20.1523 3.94531 20.1523 7.28516C20.1523 10.5898 18.7109 13.2969 16.9531 13.2969C15.1953 13.2969 13.7891 10.5898 13.7891 7.28516C13.7891 3.94531 15.1953 1.23828 16.9531 1.23828ZM21.875 1.87109C22.4727 1.87109 23 4.29688 23 7.25C23 10.2383 22.4727 12.6641 21.875 12.6641C21.2422 12.6641 20.75 10.2383 20.75 7.28516C20.75 4.29688 21.2422 1.87109 21.875 1.87109Z" fill="white"/>
</svg>
