<svg width="18" height="18" viewBox="0 0 18 18" fill="none" xmlns="http://www.w3.org/2000/svg">
<path d="M9.28125 0.53125C14.0625 0.53125 18 4.46875 18 9.25C18 14.0664 14.0625 17.9688 9.28125 17.9688C4.46484 17.9688 0.5625 14.0664 0.5625 9.25C0.5625 4.46875 4.46484 0.53125 9.28125 0.53125ZM13.2891 6.47266C13.3242 6.36719 13.3242 6.26172 13.2891 6.12109C13.2891 6.05078 13.2188 5.94531 13.1836 5.91016C13.0781 5.80469 12.9023 5.80469 12.832 5.80469C12.5156 5.80469 11.9883 5.98047 9.5625 7C8.71875 7.35156 7.03125 8.05469 4.5 9.17969C4.07812 9.35547 3.86719 9.49609 3.83203 9.67188C3.79688 9.95312 4.25391 10.0586 4.78125 10.2344C5.23828 10.375 5.83594 10.5508 6.15234 10.5508C6.43359 10.5508 6.75 10.4453 7.10156 10.1992C9.45703 8.58203 10.6875 7.77344 10.7578 7.77344C10.8281 7.77344 10.8984 7.73828 10.9336 7.77344C11.0039 7.84375 11.0039 7.91406 10.9688 7.94922C10.9336 8.125 8.71875 10.1641 8.57812 10.3047C8.08594 10.7969 7.52344 11.1133 8.40234 11.6758C9.14062 12.168 9.5625 12.4844 10.3359 12.9766C10.8281 13.293 11.2148 13.6797 11.707 13.6445C11.9531 13.6094 12.1992 13.3984 12.3047 12.7305C12.6211 11.2188 13.1836 7.84375 13.2891 6.47266Z" fill="white"/>
</svg>
